<?xml version="1.0" encoding="utf-8"?>
<!-- Generator: Adobe Illustrator 19.0.0, SVG Export Plug-In . SVG Version: 6.00 Build 0)  -->
<svg version="1.1" xmlns="http://www.w3.org/2000/svg" xmlns:xlink="http://www.w3.org/1999/xlink" x="0px" y="0px"
	 viewBox="0 0 425.2 425.2" style="enable-background:new 0 0 425.2 425.2;" xml:space="preserve">
<style type="text/css">
	.st0{fill:none;stroke:#FFFFFF;stroke-width:14;stroke-miterlimit:10;}
	.st1{fill:#FFFFFF;}
	.st2{fill:#FEFEFE;}
</style>
<g id="Layer_2">
	<circle id="XMLID_1_" class="st0" cx="217.3" cy="210.5" r="133"/>
</g>
<g id="Layer_3">
	<path id="XMLID_5_" class="st1" d="M244.5,184l-22.9,79.3c-1.2,4.7-1.9,7.8-1.9,9.3c0,0.8,0.3,1.5,1,2.3c0.7,0.8,1.4,1.1,2.2,1.1
		c1.3,0,2.6-0.6,3.9-1.7c3.3-2.7,7.2-7.4,11.6-14.1c0.3-0.5,1.3-1.4,1.9-0.9l2.4,1.3c0.6,0.5,0.2,1.2,0,1.6
		c-11.5,19.5-23.6,29.2-36.5,29.2c-5,0-9-1.4-11.9-4.2c-3-2.8-4.5-6.4-4.5-10.7c0-2.9,0.7-6.5,2-10.9l16.1-55.3
		c1.5-5.3,2.3-9.2,2.3-11.9c0-1.7-0.7-3.3-2.2-4.6c-1.5-1.3-3.5-2-6-2c-0.5,0-1,0-1.6,0c-0.8,0-2.3-0.6-2.1-1.4
		c0.2-0.7,0.4-1.4,0.5-1.8c0.4-1.8,4.6-1.9,4.6-1.9l32-5.2c0,0,2.5-0.5,4.4-0.5c1.4,0,2.7,0,3.6,0C245.8,181.2,244.5,184,244.5,184
		L244.5,184z"/>
	<circle id="XMLID_4_" class="st2" cx="233.3" cy="147.5" r="17.2"/>
</g>
</svg>
