<?xml version="1.0" encoding="utf-8"?>
<!-- Generator: Adobe Illustrator 19.0.0, SVG Export Plug-In . SVG Version: 6.00 Build 0)  -->
<svg version="1.1" xmlns="http://www.w3.org/2000/svg" xmlns:xlink="http://www.w3.org/1999/xlink" x="0px" y="0px"
	 viewBox="0 0 425.2 425.2" style="enable-background:new 0 0 425.2 425.2;" xml:space="preserve">
<style type="text/css">
	.st0{fill:none;stroke:#FFFFFF;stroke-width:12;stroke-linecap:round;stroke-miterlimit:10;}
	.st1{fill:none;stroke:#FFFFFF;stroke-width:6;stroke-linecap:round;stroke-miterlimit:10;}
	.st2{fill:none;stroke:#FFFFFF;stroke-width:8;stroke-linecap:round;stroke-miterlimit:10;}
</style>
<g id="Layer_2">
	<path id="XMLID_3_" class="st0" d="M209.7,176.1l90.6,0c15.6,0,28.3,12.7,28.3,28.3v85.8c0,15.6-12.7,28.3-28.3,28.3H125.7
		c-15.6,0-28.3-12.7-28.3-28.3v-85.8"/>
</g>
<g id="Layer_3">
	<path id="XMLID_8_" class="st0" d="M209.7,175.9v0.9c0-20.2-20.3-30.9-37.9-30.9h-42.5c-17.5,0-31.9,14.3-31.9,31.9v28.1"/>
</g>
<g id="Layer_4">
	<path id="XMLID_4_" class="st0" d="M97.5,256.2v-85.8"/>
	<path id="XMLID_5_" class="st0" d="M209.7,142.1l90.6,0c15.6,0,28.3,12.7,28.3,28.3v85.8"/>
	<path id="XMLID_1_" class="st0" d="M209.7,141.9v0.9c0-20.2-20.3-30.9-37.9-30.9h-42.5c-17.5,0-31.9,14.3-31.9,31.9v28.1"/>
	<path id="XMLID_9_" class="st0" d="M97.5,224.2v-85.8"/>
	<path id="XMLID_7_" class="st0" d="M209.7,110.1l90.6,0c15.6,0,28.3,12.7,28.3,28.3v85.8"/>
	<path id="XMLID_6_" class="st0" d="M209.7,109.9v0.9c0-20.2-20.3-30.9-37.9-30.9h-42.5c-17.5,0-31.9,14.3-31.9,31.9v28.1"/>
	<path id="XMLID_10_" class="st1" d="M252.5,288.5h-78c-6.3,0-11.5-5.2-11.5-11.5v-13c0-6.3,5.2-11.5,11.5-11.5h78
		c6.3,0,11.5,5.2,11.5,11.5v13C264,283.3,258.8,288.5,252.5,288.5z"/>
	<line id="XMLID_11_" class="st2" x1="96" y1="220" x2="327.5" y2="220"/>
</g>
</svg>
