<?xml version="1.0" encoding="utf-8"?>
<!-- Generator: Adobe Illustrator 19.0.0, SVG Export Plug-In . SVG Version: 6.00 Build 0)  -->
<svg version="1.1" xmlns="http://www.w3.org/2000/svg" xmlns:xlink="http://www.w3.org/1999/xlink" x="0px" y="0px"
	 viewBox="0 0 595.3 595.3" style="enable-background:new 0 0 595.3 595.3;" xml:space="preserve">
<style type="text/css">
	.st0{fill:none;stroke:#FFFFFF;stroke-width:12;stroke-miterlimit:10;}
	.st1{fill:none;stroke:#FFFFFF;stroke-width:8;stroke-miterlimit:10;}
</style>
<g id="Layer_2">
	<path id="XMLID_1_" class="st0" d="M383.6,416.1H215.4c-6.6,0-12-5.4-12-12V160.9c0-6.6,5.4-12,12-12h168.2c6.6,0,12,5.4,12,12
		v243.1C395.6,410.7,390.2,416.1,383.6,416.1z"/>
	<path id="XMLID_5_" class="st1" d="M369.4,246.7H229.5c-1.6,0-2.8-1.3-2.8-2.8v-58.8c0-1.6,1.3-2.8,2.8-2.8h139.9
		c1.6,0,2.8,1.3,2.8,2.8v58.8C372.2,245.4,371,246.7,369.4,246.7z"/>
</g>
<g id="Layer_3">
	<path id="XMLID_17_" class="st1" d="M362.4,295.5h-6.1c-5.5,0-10-4.5-10-10v-6.1c0-5.5,4.5-10,10-10h6.1c5.5,0,10,4.5,10,10v6.1
		C372.4,291,367.9,295.5,362.4,295.5z"/>
	<path id="XMLID_15_" class="st1" d="M323.2,295.5h-6.1c-5.5,0-10-4.5-10-10v-6.1c0-5.5,4.5-10,10-10h6.1c5.5,0,10,4.5,10,10v6.1
		C333.2,291,328.7,295.5,323.2,295.5z"/>
	<path id="XMLID_14_" class="st1" d="M284,295.5H278c-5.5,0-10-4.5-10-10v-6.1c0-5.5,4.5-10,10-10h6.1c5.5,0,10,4.5,10,10v6.1
		C294.1,291,289.5,295.5,284,295.5z"/>
	<path id="XMLID_13_" class="st1" d="M243.5,295.5h-6.1c-5.5,0-10-4.5-10-10v-6.1c0-5.5,4.5-10,10-10h6.1c5.5,0,10,4.5,10,10v6.1
		C253.5,291,249,295.5,243.5,295.5z"/>
	<path id="XMLID_12_" class="st1" d="M323.2,338.8h-6.1c-5.5,0-10-4.5-10-10v-6.1c0-5.5,4.5-10,10-10h6.1c5.5,0,10,4.5,10,10v6.1
		C333.2,334.2,328.7,338.8,323.2,338.8z"/>
	<path id="XMLID_11_" class="st1" d="M284,338.8H278c-5.5,0-10-4.5-10-10v-6.1c0-5.5,4.5-10,10-10h6.1c5.5,0,10,4.5,10,10v6.1
		C294.1,334.2,289.5,338.8,284,338.8z"/>
	<path id="XMLID_9_" class="st1" d="M243.5,338.8h-6.1c-5.5,0-10-4.5-10-10v-6.1c0-5.5,4.5-10,10-10h6.1c5.5,0,10,4.5,10,10v6.1
		C253.5,334.2,249,338.8,243.5,338.8z"/>
	<path id="XMLID_8_" class="st1" d="M361,386h-6.1c-5.5,0-10-4.5-10-10v-53.3c0-5.5,4.5-10,10-10h6.1c5.5,0,10,4.5,10,10V376
		C371,381.5,366.5,386,361,386z"/>
	<path id="XMLID_6_" class="st1" d="M321.8,383.3h-6.1c-5.5,0-10-4.5-10-10v-6.1c0-5.5,4.5-10,10-10h6.1c5.5,0,10,4.5,10,10v6.1
		C331.9,378.8,327.4,383.3,321.8,383.3z"/>
	<path id="XMLID_4_" class="st1" d="M282.7,383.3h-6.1c-5.5,0-10-4.5-10-10v-6.1c0-5.5,4.5-10,10-10h6.1c5.5,0,10,4.5,10,10v6.1
		C292.7,378.8,288.2,383.3,282.7,383.3z"/>
	<path id="XMLID_3_" class="st1" d="M242.2,383.3h-6.1c-5.5,0-10-4.5-10-10v-6.1c0-5.5,4.5-10,10-10h6.1c5.5,0,10,4.5,10,10v6.1
		C252.2,378.8,247.7,383.3,242.2,383.3z"/>
</g>
</svg>
