<?xml version="1.0" encoding="utf-8"?>
<!-- Generator: Adobe Illustrator 19.0.0, SVG Export Plug-In . SVG Version: 6.00 Build 0)  -->
<svg version="1.1" id="Layer_2" xmlns="http://www.w3.org/2000/svg" xmlns:xlink="http://www.w3.org/1999/xlink" x="0px" y="0px"
	 viewBox="0 0 425.2 425.2" style="enable-background:new 0 0 425.2 425.2;" xml:space="preserve">
<style type="text/css">
	.st0{fill:none;stroke:#FFFFFF;stroke-width:12;stroke-miterlimit:10;}
	.st1{fill:#FFFFFF;}
</style>
<path id="XMLID_9_" class="st0" d="M279.1,321.9c-33.3,8.7-70.7,4.3-116.6-30.1C117.9,258.5,97.2,221,94.6,187"/>
<path id="XMLID_3_" class="st0" d="M90.8,192.9l23.3-9.6c6.8-2.9,14.9,0.4,17.8,7.4l13.4,32.2c2.9,7-0.4,15-7.4,17.9l-17.9,7.5"/>
<path id="XMLID_5_" class="st0" d="M274.6,327.1l2.1-21.6c1.2-7.9-4.3-14.7-13.3-15.3l-34.8-3.8c-6-1-12.8,4.4-13.6,11.9l-2.1,19.3"
	/>
<g id="XMLID_14_">
	<g id="XMLID_45_">
		<path id="XMLID_49_" class="st1" d="M167.6,103.8c65.2-11.2,131.3,24.3,157.9,84.9c6.8,15.5,10.7,32.3,11.8,49.3
			c0.4,6.1,9.9,6.1,9.5,0c-2.1-32.7-14.2-64-35-89.5c-22.2-27.1-54.1-46.3-88.5-53.2c-19.3-3.9-38.9-3.9-58.2-0.6
			C159.1,95.7,161.6,104.8,167.6,103.8L167.6,103.8z"/>
	</g>
</g>
<g id="XMLID_10_">
	<g id="XMLID_39_">
		<path id="XMLID_43_" class="st1" d="M169.2,134.8c34-5.8,69.5,3.6,95.9,25.8c24.5,20.7,39.6,50.5,41.9,82.5c0.4,6.1,9.9,6.1,9.5,0
			c-4-56.6-45.4-105.6-101.5-116.9c-16-3.2-32.2-3.3-48.2-0.5C160.7,126.6,163.2,135.8,169.2,134.8L169.2,134.8z"/>
	</g>
</g>
<g id="XMLID_11_">
	<g id="XMLID_33_">
		<path id="XMLID_37_" class="st1" d="M173.4,166c49.4-4.4,94.4,28.8,104.6,77.3c1.3,6,10.4,3.4,9.2-2.5
			c-11-52.3-60.5-89-113.8-84.3C167.4,157.1,167.3,166.6,173.4,166L173.4,166z"/>
	</g>
</g>
<g id="XMLID_12_">
	<g id="XMLID_27_">
		<path id="XMLID_31_" class="st1" d="M176.6,192.4c33.1,1.5,61.8,24.5,70.6,56.4c1.6,5.9,10.8,3.4,9.2-2.5
			c-9.9-36.1-42.5-61.7-79.8-63.4C170.5,182.6,170.5,192.1,176.6,192.4L176.6,192.4z"/>
	</g>
</g>
<g id="XMLID_13_">
	<g id="XMLID_21_">
		<path id="XMLID_25_" class="st1" d="M179.3,224.5c16.3,2.9,29.7,12.7,37.1,27.5c2.7,5.5,10.9,0.7,8.2-4.8
			c-8.4-16.8-24.3-28.6-42.8-31.9C175.9,214.3,173.3,223.5,179.3,224.5L179.3,224.5z"/>
	</g>
</g>
</svg>
