<?xml version="1.0" encoding="utf-8"?>
<!-- Generator: Adobe Illustrator 19.0.0, SVG Export Plug-In . SVG Version: 6.00 Build 0)  -->
<svg version="1.1" id="Layer_2" xmlns="http://www.w3.org/2000/svg" xmlns:xlink="http://www.w3.org/1999/xlink" x="0px" y="0px"
	 viewBox="0 0 425.2 425.2" style="enable-background:new 0 0 425.2 425.2;" xml:space="preserve">
<style type="text/css">
	.st0{fill:#FFFFFF;}
</style>
<path id="XMLID_1_" class="st0" d="M328.4,115.3H201.8c-3.1,0-5.6-2.5-5.6-5.6v0c0-3.1,2.5-5.6,5.6-5.6h126.6c3.1,0,5.6,2.5,5.6,5.6
	v0C334,112.8,331.5,115.3,328.4,115.3z"/>
<path id="XMLID_3_" class="st0" d="M366.7,143.8H201.8c-3.1,0-5.6-2.5-5.6-5.6v0c0-3.1,2.5-5.6,5.6-5.6h164.9c3.1,0,5.6,2.5,5.6,5.6
	v0C372.3,141.3,369.8,143.8,366.7,143.8z"/>
<path id="XMLID_4_" class="st0" d="M366.7,172.2H201.8c-3.1,0-5.6-2.5-5.6-5.6v0c0-3.1,2.5-5.6,5.6-5.6h164.9c3.1,0,5.6,2.5,5.6,5.6
	v0C372.3,169.7,369.8,172.2,366.7,172.2z"/>
<g id="XMLID_6_">
	<g id="XMLID_43_">
		<path id="XMLID_47_" class="st0" d="M141.9,115.3c-0.3,7.9-6.4,14.5-14.5,14.5c-7.9,0-14.5-6.6-14.5-14.5
			c0-7.7,6.2-14.1,13.9-14.5C135.1,100.4,141.7,107.2,141.9,115.3c0.2,7.7,12.3,7.7,12,0c-0.5-14.4-11.8-26.5-26.5-26.5
			c-14.4,0-26.5,12.1-26.5,26.5c0,14.4,12.1,26.5,26.5,26.5c14.8,0,26.1-12.1,26.5-26.5C154.2,107.6,142.2,107.6,141.9,115.3z"/>
	</g>
</g>
<g id="XMLID_8_">
	<g id="XMLID_37_">
		<path id="XMLID_41_" class="st0" d="M91.6,179.1c0.3-19.2,15.7-35.1,35.1-35.1c19.4,0,34.8,16,35.1,35.1c0.1,7.7,12.1,7.7,12,0
			c-0.4-25.6-21.1-47.1-47.1-47.1c-25.9,0-46.7,21.5-47.1,47.1C79.5,186.8,91.5,186.8,91.6,179.1L91.6,179.1z"/>
	</g>
</g>
<path id="XMLID_16_" class="st0" d="M328.4,246.4H201.8c-3.1,0-5.6-2.5-5.6-5.6v0c0-3.1,2.5-5.6,5.6-5.6h126.6
	c3.1,0,5.6,2.5,5.6,5.6v0C334,243.9,331.5,246.4,328.4,246.4z"/>
<path id="XMLID_13_" class="st0" d="M366.7,274.9H201.8c-3.1,0-5.6-2.5-5.6-5.6l0,0c0-3.1,2.5-5.6,5.6-5.6h164.9
	c3.1,0,5.6,2.5,5.6,5.6l0,0C372.3,272.4,369.8,274.9,366.7,274.9z"/>
<path id="XMLID_12_" class="st0" d="M366.7,303.3H201.8c-3.1,0-5.6-2.5-5.6-5.6l0,0c0-3.1,2.5-5.6,5.6-5.6h164.9
	c3.1,0,5.6,2.5,5.6,5.6l0,0C372.3,300.8,369.8,303.3,366.7,303.3z"/>
<g id="XMLID_11_">
	<g id="XMLID_31_">
		<path id="XMLID_35_" class="st0" d="M141.9,246.4c-0.3,7.9-6.4,14.5-14.5,14.5c-7.9,0-14.5-6.6-14.5-14.5
			c0-7.7,6.2-14.1,13.9-14.5C135.1,231.5,141.7,238.3,141.9,246.4c0.2,7.7,12.3,7.7,12,0c-0.5-14.4-11.8-26.5-26.5-26.5
			c-14.4,0-26.5,12.1-26.5,26.5c0,14.4,12.1,26.5,26.5,26.5c14.8,0,26.1-12.1,26.5-26.5C154.2,238.7,142.2,238.7,141.9,246.4z"/>
	</g>
</g>
<g id="XMLID_10_">
	<g id="XMLID_28_">
		<path id="XMLID_42_" class="st0" d="M91.6,310.2c0.3-19.2,15.7-35.1,35.1-35.1c19.4,0,34.8,16,35.1,35.1c0.1,7.7,12.1,7.7,12,0
			c-0.4-25.6-21.1-47.1-47.1-47.1c-25.9,0-46.7,21.5-47.1,47.1C79.5,317.9,91.5,317.9,91.6,310.2L91.6,310.2z"/>
	</g>
</g>
</svg>
