<?xml version="1.0" encoding="utf-8"?>
<!-- Generator: Adobe Illustrator 19.0.0, SVG Export Plug-In . SVG Version: 6.00 Build 0)  -->
<svg version="1.1" id="Layer_3" xmlns="http://www.w3.org/2000/svg" xmlns:xlink="http://www.w3.org/1999/xlink" x="0px" y="0px"
	 viewBox="0 0 425.2 425.2" style="enable-background:new 0 0 425.2 425.2;" xml:space="preserve">
<style type="text/css">
	.st0{fill:none;stroke:#FFFFFF;stroke-width:12;stroke-miterlimit:10;}
	.st1{fill:none;stroke:#FFFFFF;stroke-width:12;stroke-linecap:round;stroke-miterlimit:10;}
</style>
<ellipse id="XMLID_1_" transform="matrix(0.6973 0.7168 -0.7168 0.6973 163.0915 -117.4261)" class="st0" cx="220.6" cy="134.4" rx="85.8" ry="35.2"/>
<ellipse id="XMLID_12_" transform="matrix(0.6973 0.7168 -0.7168 0.6973 163.0411 -118.0054)" class="st0" cx="221.2" cy="134" rx="34.8" ry="14.3"/>
<line id="XMLID_4_" class="st0" x1="193.5" y1="157" x2="339.9" y2="303.4"/>
<line id="XMLID_6_" class="st1" x1="339.3" y1="302.7" x2="280.1" y2="361.9"/>
<path id="XMLID_10_" class="st0" d="M136.2,218.1c-33-34-48.5-72.5-34.6-86"/>
<line id="XMLID_11_" class="st0" x1="134.3" y1="216.1" x2="280.7" y2="362.5"/>
<line id="XMLID_13_" class="st0" x1="112.8" y1="182" x2="123.7" y2="171.1"/>
<line id="XMLID_14_" class="st0" x1="130.8" y1="211.3" x2="156.9" y2="185.2"/>
<line id="XMLID_18_" class="st0" x1="177.8" y1="258.3" x2="203.9" y2="232.3"/>
<line id="XMLID_15_" class="st0" x1="157.1" y1="232" x2="168" y2="221.1"/>
<line id="XMLID_20_" class="st0" x1="226.4" y1="306.9" x2="252.5" y2="280.8"/>
<line id="XMLID_19_" class="st0" x1="205.7" y1="280.6" x2="216.6" y2="269.7"/>
<line id="XMLID_21_" class="st0" x1="253.5" y1="328.4" x2="264.4" y2="317.5"/>
<line id="XMLID_8_" class="st0" x1="160.8" y1="72.9" x2="101.4" y2="132.3"/>
<line id="XMLID_2_" class="st0" x1="281.5" y1="194.7" x2="253.1" y2="223.1"/>
</svg>
